<svg version="1.1"
  class="project-icon"
  height="120px"
  viewBox="0 0 100 80">
  <path class="project-shape" opacity="0.5" d="M99,80H1c-0.6,0-1-0.4-1-1V1c0-0.6,0.4-1,1-1h98c0.6,0,1,0.4,1,1v78C100,79.6,99.6,80,99,80z"/>
  <path class="project-shape" opacity="0.5" d="M100,46H0V1c0-0.6,0.4-1,1-1h98c0.6,0,1,0.4,1,1V46z"/>
  <path class="project-shape" opacity="0.5" d="M99,0H1C0.4,0,0,0.4,0,1v5v73c0,0.6,0.4,1,1,1h98c0.6,0,1-0.4,1-1V6V1C100,0.4,99.6,0,99,0z M99,79H1V6h98V79z"/>
  <path class="project-shape" d="M60,37c0,0.6-0.4,1-1,1H40c-0.6,0-1-0.4-1-1v-4c0-0.6,0.4-1,1-1h19c0.6,0,1,0.4,1,1V37z"/>
  <g class="project-shape">
    <circle cx="3.5" cy="3" r="1.5"/>
    <circle cx="7.5" cy="3" r="1.5"/>
    <circle cx="11.5" cy="3" r="1.5"/>
  </g>
  <g class="project-shape">
    <rect x="13" y="13" width="75" height="2"/>
    <rect x="23" y="26" width="55" height="1"/>
    <rect x="13" y="23" width="75" height="1"/>
    <rect x="13" y="20" width="75" height="1"/>
    <rect x="13" y="17" width="75" height="1"/>
  </g>
  <g class="project-shape">
    <rect x="4" y="73" width="17" height="1"/>
    <rect x="4" y="51" width="25" height="2"/>
    <rect x="4" y="64" width="27" height="1"/>
    <rect x="4" y="67" width="27" height="1"/>
    <rect x="4" y="70" width="27" height="1"/>
    <rect x="4" y="61" width="27" height="1"/>
    <rect x="4" y="58" width="27" height="1"/>
    <rect x="4" y="55" width="27" height="1"/>
  </g>
  <g class="project-shape">
    <rect x="36" y="73" width="17" height="1"/>
    <rect x="36" y="51" width="25" height="2"/>
    <rect x="36" y="64" width="27" height="1"/>
    <rect x="36" y="67" width="27" height="1"/>
    <rect x="36" y="70" width="27" height="1"/>
    <rect x="36" y="61" width="27" height="1"/>
    <rect x="36" y="58" width="27" height="1"/>
    <rect x="36" y="55" width="27" height="1"/>
  </g>
  <g class="project-shape">
    <rect x="69" y="73" width="17" height="1"/>
    <rect x="69" y="51" width="25" height="2"/>
    <rect x="69" y="64" width="27" height="1"/>
    <rect x="69" y="67" width="27" height="1"/>
    <rect x="69" y="70" width="27" height="1"/>
    <rect x="69" y="61" width="27" height="1"/>
    <rect x="69" y="58" width="27" height="1"/>
    <rect x="69" y="55" width="27" height="1"/>
  </g>
</svg>


