<svg version="1.1"
  class="project-icon"
  viewBox="0 0 30 40"
  width="90px">
  <path class="project-shape" d="M28,40H2c-1.1,0-2-0.9-2-2V2c0-1.1,0.9-2,2-2h18l10,10v28C30,39.1,29.1,40,28,40z"/>
  <path class="project-shape" d="M30,10h-8c-1.1,0-2-0.9-2-2V0L30,10z"/>
  <path class="project-shape" d="M23,13H7c-0.6,0-1,0.4-1,1v12c0,0.6,0.4,1,1,1h16c0.6,0,1-0.4,1-1V14C24,13.4,23.6,13,23,13L23,13z"/>
  <path class="project-shape" d="M7.1,27l15.3,0l-7.5-7.5c-0.3-0.3-0.8-0.5-1.2-0.5c-0.4,0-0.9,0.2-1.2,0.5L6,25.9V26C6,26.6,6.5,27,7.1,27z"/>
  <path class="project-shape" d="M24,19l-1.1-1c-0.4-0.4-1-0.6-1.5-0.6c-0.5,0-1.1,0.2-1.5,0.6l-9.1,9H23c0.6,0,1-0.4,1-1V19z"/>
  <path class="project-shape" d="M7,13c-0.6,0-1,0.4-1,1v2.2c0.3,0.2,0.7,0.3,1.2,0.3c1.3,0,2.3-1,2.3-2.3c0-0.4-0.1-0.8-0.3-1.2H7z"/>
  <path class="project-shape" d="M7.2,36v-5.3h2.5c1.2,0,1.8,0.8,1.8,1.7c0,0.9-0.6,1.7-1.8,1.7H8.4V36H7.2z M10.4,32.4c0-0.4-0.3-0.7-0.8-0.7H8.4v1.4h1.2C10,33.1,10.4,32.8,10.4,32.4z"/>
  <path class="project-shape" d="M15.9,36l-2.5-3.5V36h-1.1v-5.3h1.2l2.5,3.4v-3.4H17V36H15.9z"/>
  <path class="project-shape" d="M17.8,33.3c0-1.7,1.3-2.8,2.8-2.8c1.1,0,1.8,0.6,2.2,1.2l-0.9,0.5c-0.2-0.4-0.7-0.7-1.3-0.7c-1,0-1.7,0.7-1.7,1.8c0,1,0.7,1.8,1.7,1.8c0.5,0,0.9-0.2,1.1-0.4V34h-1.4v-1h2.5v2c-0.5,0.6-1.3,1-2.3,1C19.1,36.1,17.8,35,17.8,33.3z"/>
</svg>
